<svg width="18" height="18" viewBox="0 0 18 18" fill="none" xmlns="http://www.w3.org/2000/svg">
<path d="M0.375855 3.34533C2.84628 5.43751 7.18112 9.1183 8.45518 10.266C8.62621 10.4209 8.80966 10.4996 9.0001 10.4996C9.19015 10.4996 9.37328 10.4216 9.54393 10.2675C10.8191 9.11865 15.1539 5.43751 17.6244 3.34533C17.7782 3.21532 17.8016 2.9868 17.6771 2.82786C17.3893 2.46059 16.9601 2.25 16.5001 2.25H1.50012C1.04017 2.25 0.610945 2.46059 0.323121 2.8279C0.198597 2.9868 0.222047 3.21532 0.375855 3.34533Z" fill="#FE7148"/>
<path d="M17.7825 4.47905C17.6496 4.41718 17.4932 4.43876 17.3826 4.53326C14.6429 6.85576 11.1464 9.83272 10.0463 10.824C9.4288 11.3814 8.57187 11.3814 7.95298 10.8233C6.78038 9.76676 2.85384 6.42875 0.617414 4.53323C0.506074 4.43873 0.349348 4.41788 0.217512 4.47902C0.0849726 4.54058 0 4.67315 0 4.81926V14.2499C0 15.0772 0.672715 15.7499 1.50001 15.7499H16.5C17.3273 15.7499 18 15.0772 18 14.2499V4.81926C18 4.67315 17.915 4.54022 17.7825 4.47905Z" fill="#FE7148"/>
</svg>
