<svg width="20" height="20" viewBox="0 0 20 20" fill="none" xmlns="http://www.w3.org/2000/svg">
<path d="M10.0002 0C6.32424 0 3.3335 2.99074 3.3335 6.66668C3.3335 7.7702 3.60939 8.86434 4.13389 9.8348L9.63561 19.7852C9.70885 19.9178 9.84842 20 10.0002 20C10.1519 20 10.2915 19.9178 10.3647 19.7852L15.8685 9.83152C16.391 8.86434 16.6669 7.77016 16.6669 6.66664C16.6669 2.99074 13.6761 0 10.0002 0ZM10.0002 10C8.16221 10 6.66686 8.50465 6.66686 6.66668C6.66686 4.82871 8.16221 3.33336 10.0002 3.33336C11.8381 3.33336 13.3335 4.82871 13.3335 6.66668C13.3335 8.50465 11.8381 10 10.0002 10Z" fill="#FE7148"/>
</svg>
