<?xml version="1.0" encoding="utf-8"?>
<svg viewBox="0 0 500 500" xmlns="http://www.w3.org/2000/svg">
  <path d="M 235.235 486.223 C 112.932 486.223 13.778 387.076 13.778 264.764 L 13.778 235.237 C 13.778 112.933 112.932 13.778 235.235 13.778 L 486.222 13.778 L 486.222 264.764 C 486.222 387.076 387.075 486.223 264.764 486.223 L 235.235 486.223 Z" fill="#66CA36" style=""/>
  <path d="M 366.782 175.516 L 292.823 175.516 L 292.823 136.592 C 292.823 125.859 284.089 117.125 273.356 117.125 L 148.786 117.125 C 138.053 117.125 129.32 125.859 129.32 136.592 L 129.32 340.053 C 129.32 342.208 131.062 343.95 133.218 343.95 C 135.366 343.95 137.108 342.208 137.108 340.053 L 137.108 136.592 C 137.108 130.148 142.349 124.914 148.786 124.914 L 176.254 124.914 C 180.705 124.914 184.706 127.386 186.7 131.366 L 193.661 145.295 C 196.983 151.932 203.648 156.051 211.074 156.051 C 218.494 156.051 225.159 151.932 228.481 145.295 L 235.442 131.366 C 237.436 127.386 241.436 124.914 245.888 124.914 L 273.356 124.914 C 279.793 124.914 285.034 130.148 285.034 136.592 L 285.034 175.516 L 211.074 175.516 C 208.919 175.516 207.177 177.26 207.177 179.415 L 207.177 328.374 C 207.177 330.53 208.919 332.272 211.074 332.272 L 285.034 332.272 L 285.034 351.731 L 133.218 351.731 C 131.062 351.731 129.32 353.473 129.32 355.628 L 129.32 363.409 C 129.32 374.142 138.053 382.876 148.786 382.876 L 273.356 382.876 C 284.089 382.876 292.823 374.142 292.823 363.409 L 292.823 332.272 L 366.782 332.272 C 368.931 332.272 370.679 330.53 370.679 328.374 L 370.679 179.415 C 370.679 177.26 368.931 175.516 366.782 175.516 Z M 228.481 127.889 L 221.521 141.812 C 219.528 145.797 215.527 148.27 211.074 148.27 C 206.617 148.27 202.616 145.797 200.622 141.812 L 193.661 127.889 C 193.13 126.826 192.509 125.837 191.816 124.914 L 230.326 124.914 C 229.633 125.837 229.012 126.826 228.481 127.889 Z M 285.034 363.409 C 285.034 369.853 279.793 375.087 273.356 375.087 L 148.786 375.087 C 142.349 375.087 137.108 369.853 137.108 363.409 L 137.108 359.519 L 285.034 359.519 L 285.034 363.409 Z M 362.892 183.305 L 362.892 293.34 L 343.425 293.34 L 343.425 284.519 C 343.425 271.637 332.951 261.162 320.069 261.162 L 257.788 261.162 C 244.906 261.162 234.431 271.637 234.431 284.519 L 234.431 293.34 L 214.965 293.34 L 214.965 183.305 L 362.892 183.305 Z M 323.96 293.34 L 323.96 284.519 C 323.96 282.37 322.217 280.621 320.069 280.621 C 317.921 280.621 316.179 282.37 316.179 284.519 L 316.179 293.34 L 261.678 293.34 L 261.678 284.519 C 261.678 282.37 259.936 280.621 257.788 280.621 C 255.633 280.621 253.889 282.37 253.889 284.519 L 253.889 293.34 L 242.211 293.34 L 242.211 284.519 C 242.211 275.933 249.203 268.943 257.788 268.943 L 320.069 268.943 C 328.654 268.943 335.645 275.933 335.645 284.519 L 335.645 293.34 L 323.96 293.34 Z M 214.965 324.485 L 214.965 301.128 L 362.892 301.128 L 362.892 324.485 L 214.965 324.485 Z" fill="white" style=""/>
</svg>