<?xml version="1.0" encoding="utf-8"?>
<svg viewBox="0 0 500 500" xmlns="http://www.w3.org/2000/svg">
  <defs>
    <filter id="filter0_d" x="0" y="0" width="82" height="82" filterUnits="userSpaceOnUse" color-interpolation-filters="sRGB">
      <feFlood flood-opacity="0" result="BackgroundImageFix"/>
      <feColorMatrix in="SourceAlpha" type="matrix" values="0 0 0 0 0 0 0 0 0 0 0 0 0 0 0 0 0 0 127 0" result="hardAlpha"/>
      <feOffset dy="4"/>
      <feGaussianBlur stdDeviation="4.5"/>
      <feColorMatrix type="matrix" values="0 0 0 0 0.916667 0 0 0 0 0.775156 0 0 0 0 0.7425 0 0 0 1 0"/>
      <feBlend mode="normal" in2="BackgroundImageFix" result="effect1_dropShadow"/>
      <feBlend mode="normal" in="SourceGraphic" in2="effect1_dropShadow" result="shape"/>
    </filter>
    <clipPath id="clip0">
      <rect width="36" height="36" fill="white"/>
    </clipPath>
  </defs>
  <g filter="url(#filter0_d)" transform="matrix(6.846028, 0, 0, 6.846028, -30.687141, -3.30303)" style="">
    <path d="M39 69C22.4315 69 9 55.5685 9 39L9 35C9 18.4315 22.4315 5 39 5L73 5L73 39C73 55.5685 59.5685 69 43 69L39 69Z" fill="#EB5C3C"/>
  </g>
  <g clip-path="url(#clip0)" transform="matrix(6.846028, 0, 0, 6.846028, 126.771484, 126.771408)" style="">
    <path d="M26.445 20.678C24.1278 20.678 22.054 22.1459 21.2848 24.3305C21.0796 24.9132 20.9756 25.5245 20.9756 26.1474C20.9756 29.1633 23.4292 31.6168 26.445 31.6168C29.4608 31.6168 31.9143 29.1632 31.9143 26.1474C31.9143 23.1317 29.4608 20.678 26.445 20.678ZM26.445 30.5621C24.0107 30.5621 22.0303 28.5817 22.0303 26.1474C22.0303 25.6441 22.1142 25.1507 22.2796 24.6809C22.9005 22.9175 24.5745 21.7327 26.445 21.7327C28.8792 21.7327 30.8596 23.7131 30.8596 26.1474C30.8596 28.5817 28.8792 30.5621 26.445 30.5621Z" fill="white"/>
    <path d="M35.5016 32.9517L32.7554 30.1381C33.4861 28.983 33.9097 27.6151 33.9097 26.1498C33.9097 25.4087 33.8012 24.683 33.5924 23.9891L34.6723 23.8596C34.9044 23.8318 35.0905 23.6544 35.1293 23.4237L35.9782 18.3872C36.0167 18.1589 35.9019 17.9321 35.695 17.8282L32.9243 16.436C32.8458 15.6184 32.6988 14.8026 32.4859 14.0035L34.6245 11.7221C34.7834 11.5526 34.8126 11.2989 34.6965 11.0976L32.155 6.69355C32.0389 6.49217 31.8048 6.39057 31.5785 6.44373L28.5171 7.16007C28.2093 6.85723 27.8849 6.56473 27.5515 6.28953C27.2614 6.04984 26.9578 5.81795 26.6493 5.60005C26.6387 5.59253 26.6279 5.585 26.6173 5.57748L26.7898 2.45505C26.8027 2.22295 26.662 2.00983 26.4438 1.93031L21.6675 0.190918C21.4491 0.111395 21.2046 0.184239 21.0652 0.370356L19.1805 2.88803C18.36 2.82187 17.5304 2.82447 16.7069 2.89534L14.8345 0.394613C14.6952 0.208567 14.4509 0.135583 14.2323 0.215176L9.4559 1.95449C9.23765 2.03402 9.09709 2.24713 9.10989 2.47923L9.28342 5.62023C8.61187 6.09779 7.97793 6.63301 7.393 7.21625L4.3522 6.50476C4.12594 6.45153 3.8918 6.55327 3.77564 6.75458L1.23413 11.1586C1.11798 11.3599 1.14723 11.6135 1.30613 11.7831L3.45924 14.0799C3.25118 14.8785 3.1088 15.6953 3.03455 16.5154L0.289979 17.8989C0.0838228 18.0029 -0.0308566 18.229 0.00725268 18.4568L0.84854 23.4922C0.887142 23.7232 1.07333 23.9011 1.30571 23.9289L4.4306 24.3038C4.78441 25.0502 5.20017 25.7678 5.67028 26.4437L4.44192 29.3158C4.35059 29.5295 4.40972 29.7779 4.58768 29.9272L8.48144 33.1961C8.65954 33.3457 8.91428 33.3608 9.10863 33.2336L11.7448 31.51C12.496 31.8536 13.2748 32.1357 14.067 32.3507L14.972 35.3431C15.0393 35.5656 15.2442 35.7178 15.4765 35.7178H20.5595C20.7918 35.7178 20.9968 35.5656 21.064 35.3431L21.9757 32.3289C22.0348 32.3126 22.0933 32.2943 22.1524 32.2773C23.366 33.1287 24.8427 33.6292 26.4342 33.6292C27.8858 33.6292 29.2418 33.2127 30.3899 32.4935L33.1193 35.3412C33.7454 36.0039 34.8812 36.0085 35.5111 35.3493C36.1673 34.7172 36.1618 33.5791 35.5016 32.9517ZM20.0129 26.1499C20.0129 25.4176 20.1349 24.6995 20.3756 24.0156C21.2787 21.4495 23.7134 19.7255 26.4342 19.7255C27.7211 19.7255 28.9624 20.1048 30.0241 20.8224C30.2653 20.9854 30.5931 20.922 30.756 20.6806C30.9189 20.4393 30.8555 20.1114 30.6142 19.9483C29.9543 19.5023 29.2347 19.1698 28.4796 18.9554C28.516 18.5981 28.5355 18.2374 28.5355 17.8777C28.5355 12.081 23.8218 7.36503 18.028 7.36503C16.8131 7.36503 15.6222 7.57076 14.4884 7.97661C14.2143 8.07469 14.0716 8.37654 14.1696 8.65083C14.2677 8.92512 14.5694 9.06792 14.8435 8.96977C15.863 8.60485 16.9345 8.41986 18.028 8.41986C23.2406 8.41986 27.4813 12.6627 27.4813 17.8778C27.4813 18.1652 27.4668 18.4532 27.441 18.7393C27.1092 18.6946 26.7732 18.6708 26.4342 18.6708C25.6415 18.6708 24.8695 18.7966 24.1412 19.032C24.2121 18.6538 24.2482 18.2682 24.2482 17.8778C24.2482 14.4463 21.4579 11.6546 18.028 11.6546C14.5982 11.6546 11.8078 14.4463 11.8078 17.8778C11.8078 19.2105 12.2228 20.4814 13.008 21.5531C13.181 21.7895 13.5124 21.8378 13.7447 21.6666C13.9795 21.4945 14.0304 21.1645 13.8583 20.9296C13.2066 20.0399 12.8621 18.9846 12.8621 17.8778C12.8621 15.0279 15.1795 12.7093 18.028 12.7093C20.8765 12.7093 23.1939 15.0279 23.1939 17.8778C23.1939 18.4534 23.0997 19.0162 22.9154 19.554C21.5874 20.2638 20.4835 21.3677 19.7802 22.7404C19.2198 22.9427 18.6314 23.0462 18.0281 23.0462C17.1555 23.0462 16.2934 22.8247 15.5349 22.4057C15.28 22.2649 14.9593 22.3573 14.8186 22.6124C14.6779 22.8674 14.7704 23.1883 15.0252 23.329C15.9393 23.8341 16.9777 24.1011 18.0281 24.1011C18.4526 24.1011 18.8709 24.0576 19.2804 23.9738C19.067 24.6768 18.9587 25.4073 18.9587 26.15C18.9587 26.5345 18.9879 26.9123 19.0441 27.2813C18.7073 27.3172 18.3674 27.3356 18.0281 27.3356C12.8156 27.3356 8.57481 23.0928 8.57481 17.8777C8.57481 14.7211 10.1405 11.7841 12.7632 10.0211C13.0048 9.85866 13.0691 9.53107 12.9068 9.28927C12.7443 9.04753 12.4168 8.9832 12.1752 9.14562C9.26064 11.1048 7.52055 14.3691 7.52055 17.8777C7.52055 23.6744 12.2342 28.3904 18.0281 28.3904C18.4459 28.3904 18.8648 28.3652 19.2788 28.3162C19.6487 29.537 20.3228 30.6265 21.2125 31.4965C21.1381 31.5608 21.0812 31.6449 21.0517 31.7423L20.1684 34.663H15.868L14.9906 31.7622C14.9369 31.5845 14.7937 31.4483 14.6138 31.4033C13.6947 31.1736 12.7921 30.8469 11.9313 30.4323C11.765 30.3523 11.569 30.365 11.4143 30.4661L8.85951 32.1364L5.56516 29.3708L6.7559 26.5866C6.82889 26.4159 6.80681 26.2194 6.69768 26.0692C6.13947 25.3004 5.65791 24.4692 5.26641 23.5988C5.19054 23.4301 5.03191 23.3136 4.8484 23.2916L1.82328 22.9287L1.11116 18.6661L3.77353 17.3241C3.93947 17.2403 4.04916 17.0754 4.06217 16.8899C4.12861 15.9414 4.29349 14.995 4.55238 14.0771C4.60266 13.8992 4.55604 13.708 4.42962 13.573L2.34275 11.347L4.49304 7.6209L7.44131 8.31073C7.62222 8.35327 7.812 8.29702 7.94102 8.16307C8.60266 7.47598 9.33672 6.85611 10.1227 6.32089C10.2755 6.21683 10.3626 6.04034 10.3524 5.85577L10.1842 2.81167L14.2253 1.3401L16.0406 3.76469C16.152 3.9134 16.3334 3.99271 16.5182 3.97295C17.4678 3.87184 18.4283 3.86903 19.3731 3.96444C19.5568 3.98286 19.7371 3.90383 19.8479 3.7559L21.6746 1.31599L25.7157 2.78762L25.5484 5.81527C25.5382 6.00104 25.6264 6.17844 25.7807 6.28215C26.5713 6.81392 27.3094 7.42817 27.9741 8.10915C28.103 8.24112 28.2915 8.29618 28.4712 8.25413L31.4377 7.55994L33.5879 11.2861L31.5144 13.4981C31.3872 13.6337 31.3409 13.8262 31.3923 14.005C31.6571 14.9242 31.8275 15.8695 31.8987 16.8146C31.9126 16.9993 32.0223 17.1631 32.1877 17.2462L34.874 18.596L34.1554 22.8593L33.2035 22.9735C33.0112 22.5647 32.7819 22.1711 32.5145 21.7977C32.3448 21.5609 32.0155 21.5067 31.7789 21.6762C31.5423 21.8459 31.4879 22.1753 31.6574 22.4122C32.4412 23.5063 32.8554 24.7988 32.8554 26.1498C32.8554 29.6922 29.9749 32.5742 26.4342 32.5742C22.8934 32.5742 20.0129 29.6923 20.0129 26.1499ZM32.1214 30.9983L32.7491 31.6414L31.8545 32.4976L31.2493 31.866C31.563 31.601 31.8548 31.3107 32.1214 30.9983ZM34.7642 34.6046C34.5304 34.849 34.1115 34.8489 33.8759 34.6066L32.5842 33.2589L33.4857 32.3962L34.7506 33.6921C35.0071 33.9267 35.0149 34.3634 34.7642 34.6046Z" fill="white"/>
  </g>
</svg>