<?xml version="1.0" encoding="utf-8"?>
<svg viewBox="0 0 500 500" xmlns="http://www.w3.org/2000/svg">
  <defs>
    <filter id="filter0_d" x="0" y="0" width="82" height="82" filterUnits="userSpaceOnUse" color-interpolation-filters="sRGB">
      <feFlood flood-opacity="0" result="BackgroundImageFix"/>
      <feColorMatrix in="SourceAlpha" type="matrix" values="0 0 0 0 0 0 0 0 0 0 0 0 0 0 0 0 0 0 127 0" result="hardAlpha"/>
      <feOffset dy="4"/>
      <feGaussianBlur stdDeviation="4.5"/>
      <feColorMatrix type="matrix" values="0 0 0 0 0.916667 0 0 0 0 0.775156 0 0 0 0 0.7425 0 0 0 1 0"/>
      <feBlend mode="normal" in2="BackgroundImageFix" result="effect1_dropShadow"/>
      <feBlend mode="normal" in="SourceGraphic" in2="effect1_dropShadow" result="shape"/>
    </filter>
    <clipPath id="clip0">
      <rect width="36" height="36" fill="white"/>
    </clipPath>
  </defs>
  <g filter="url(#filter0_d)" transform="matrix(7.274804, 0, 0, 7.274804, -48.266968, -19.167751)" style="">
    <path d="M39 69C22.4315 69 9 55.5685 9 39L9 35C9 18.4315 22.4315 5 39 5L73 5L73 39C73 55.5685 59.5685 69 43 69L39 69Z" fill="#6B3BEF"/>
  </g>
  <g clip-path="url(#clip0)" transform="matrix(7.274804, 0, 0, 7.274804, 119.053505, 119.053528)" style="">
    <path d="M30.375 7.03125C29.9869 7.03125 29.6719 7.34625 29.6719 7.73438C29.6719 8.1225 29.9869 8.4375 30.375 8.4375C30.7631 8.4375 31.0781 8.1225 31.0781 7.73438C31.0781 7.34625 30.7631 7.03125 30.375 7.03125Z" fill="white"/>
    <path d="M5.625 7.03125C5.23687 7.03125 4.92188 7.34625 4.92188 7.73438C4.92188 8.1225 5.23687 8.4375 5.625 8.4375C6.01312 8.4375 6.32812 8.1225 6.32812 7.73438C6.32812 7.34625 6.01312 7.03125 5.625 7.03125Z" fill="white"/>
    <path d="M35.2972 15.4688H34.4562C34.1934 13.4435 33.5583 11.5135 32.5617 9.72391C32.3728 9.38472 31.9447 9.26273 31.6053 9.45166C31.2661 9.64059 31.1442 10.0688 31.3331 10.4081C32.2126 11.9875 32.7848 13.6866 33.0383 15.4688H32.4847C32.0963 15.4688 31.7815 15.7836 31.7815 16.1719V18.9844C31.7815 19.3728 32.0963 19.6875 32.4847 19.6875H35.2972C35.6855 19.6875 36.0003 19.3728 36.0003 18.9844V16.1719C36.0003 15.7836 35.6855 15.4688 35.2972 15.4688ZM34.594 18.2813H33.1878V16.875H33.8261C33.8263 16.875 33.8266 16.875 33.8268 16.875C33.8271 16.875 33.8273 16.875 33.8276 16.875H34.594V18.2813Z" fill="white"/>
    <path d="M25.733 20.5749C25.7326 20.564 25.7323 20.5531 25.7314 20.5422C25.7302 20.5273 25.7281 20.5126 25.7259 20.498C25.7246 20.489 25.7235 20.48 25.7218 20.471C25.7186 20.4538 25.7143 20.4369 25.7099 20.4201C25.7082 20.4137 25.7069 20.4073 25.705 20.401C25.6987 20.3799 25.6914 20.3593 25.6833 20.3392C25.6823 20.337 25.6817 20.3347 25.6808 20.3325C25.6711 20.309 25.6602 20.2861 25.6481 20.2641L18.617 7.39716C18.4937 7.17159 18.2571 7.03125 18 7.03125C17.7429 7.03125 17.5063 7.17159 17.383 7.39723L10.3519 20.2641C10.3398 20.2862 10.3289 20.3091 10.3192 20.3325C10.3183 20.3347 10.3177 20.337 10.3167 20.3392C10.3086 20.3594 10.3013 20.38 10.295 20.401C10.2931 20.4074 10.2918 20.4138 10.2901 20.4202C10.2856 20.437 10.2814 20.4538 10.2782 20.4711C10.2765 20.48 10.2755 20.489 10.2741 20.4981C10.2719 20.5127 10.2698 20.5274 10.2686 20.5423C10.2677 20.5532 10.2673 20.5641 10.267 20.575C10.2666 20.5838 10.2656 20.5926 10.2656 20.6016C10.2656 20.6062 10.2663 20.6106 10.2663 20.6153C10.2665 20.6263 10.2672 20.6373 10.268 20.6483C10.2689 20.6623 10.2701 20.6762 10.2718 20.69C10.2731 20.6997 10.2746 20.7094 10.2762 20.7191C10.2788 20.7342 10.2818 20.7493 10.2853 20.7641C10.2873 20.7725 10.2895 20.7809 10.2918 20.7892C10.2962 20.8052 10.3013 20.8209 10.3068 20.8365C10.3083 20.8409 10.3093 20.8454 10.311 20.8498L12.8467 27.5695C12.6433 27.6704 12.4552 27.8043 12.2899 27.9695C11.8913 28.3681 11.6719 28.8977 11.6719 29.4609C11.6719 30.3775 12.2598 31.1591 13.0781 31.4494V35.2969C13.0781 35.6852 13.3929 36 13.7812 36H22.2188C22.6071 36 22.9219 35.6852 22.9219 35.2969V31.4506C23.215 31.3471 23.4838 31.1787 23.7102 30.9523C24.1087 30.5538 24.3281 30.0241 24.3281 29.4609C24.3281 28.6331 23.8487 27.9156 23.153 27.5704L25.6891 20.8498C25.6908 20.8454 25.6918 20.8409 25.6933 20.8365C25.6988 20.8209 25.7039 20.8052 25.7083 20.7892C25.7106 20.7809 25.7127 20.7725 25.7148 20.7641C25.7183 20.7493 25.7212 20.7342 25.7238 20.7191C25.7254 20.7094 25.7271 20.6997 25.7283 20.69C25.73 20.6762 25.7311 20.6623 25.7321 20.6483C25.7328 20.6373 25.7335 20.6263 25.7337 20.6153C25.7338 20.6107 25.7344 20.6062 25.7344 20.6016C25.7344 20.5926 25.7334 20.5838 25.733 20.5749ZM18 19.8984C18.3877 19.8984 18.7031 20.2139 18.7031 20.6016C18.7031 20.9893 18.3877 21.3047 18 21.3047C17.6123 21.3047 17.2969 20.9893 17.2969 20.6016C17.2969 20.2139 17.6123 19.8984 18 19.8984ZM21.5156 34.5938H14.4844V31.5703H21.5156V34.5938ZM22.7158 29.9579C22.5829 30.0909 22.4063 30.1641 22.2188 30.1641H13.7812C13.3935 30.1641 13.0781 29.8486 13.0781 29.4609C13.0781 29.2733 13.1513 29.0968 13.2842 28.964C13.4172 28.831 13.5937 28.7578 13.7812 28.7578H22.214C22.2156 28.7578 22.2171 28.758 22.2187 28.758C22.2195 28.758 22.2203 28.758 22.2211 28.758C22.6077 28.7592 22.9219 29.074 22.9219 29.4609C22.9219 29.6485 22.8487 29.8251 22.7158 29.9579ZM21.7325 27.3516H14.2675L11.9856 21.3047H13.7812C14.1696 21.3047 14.4844 20.9899 14.4844 20.6016C14.4844 20.2132 14.1696 19.8984 13.7812 19.8984H12.1542L17.2969 10.4874V18.6131C16.4785 18.9034 15.8906 19.6849 15.8906 20.6016C15.8906 21.7647 16.8369 22.7109 18 22.7109C19.1631 22.7109 20.1094 21.7647 20.1094 20.6016C20.1094 19.685 19.5215 18.9034 18.7031 18.6131V10.4874L23.8458 19.8984H22.2188C21.8304 19.8984 21.5156 20.2132 21.5156 20.6016C21.5156 20.9899 21.8304 21.3047 22.2188 21.3047H24.0144L21.7325 27.3516Z" fill="white"/>
    <path d="M4.39488 9.45166C4.05555 9.26266 3.62735 9.38458 3.43849 9.72391C2.44195 11.5135 1.80682 13.4435 1.54406 15.4688H0.703125C0.314789 15.4688 0 15.7836 0 16.1719V18.9844C0 19.3728 0.314789 19.6875 0.703125 19.6875H3.51562C3.90396 19.6875 4.21875 19.3728 4.21875 18.9844V16.1719C4.21875 15.7836 3.90396 15.4688 3.51562 15.4688H2.96191C3.21553 13.6866 3.78766 11.9875 4.66713 10.4081C4.85606 10.0688 4.73421 9.64059 4.39488 9.45166ZM2.8125 18.2813H1.40625V16.875H2.17273C2.17301 16.875 2.17322 16.875 2.1735 16.875C2.17371 16.875 2.17399 16.875 2.1742 16.875H2.8125V18.2813Z" fill="white"/>
    <path d="M33.8906 0C32.974 0 32.1924 0.587883 31.9022 1.40625H20.1094V0.703125C20.1094 0.314789 19.7946 0 19.4062 0H16.5938C16.2054 0 15.8906 0.314789 15.8906 0.703125V1.40625H4.09781C3.80756 0.587883 3.02597 0 2.10938 0C0.946266 0 0 0.946266 0 2.10938C0 3.27248 0.946266 4.21875 2.10938 4.21875C3.02597 4.21875 3.80756 3.63087 4.09781 2.8125H11.1666C9.66691 3.44004 8.2916 4.25468 7.15957 5.20903C6.86264 5.45934 6.82488 5.90295 7.0752 6.1998C7.21427 6.36483 7.41305 6.44977 7.61309 6.44977C7.77312 6.44977 7.93399 6.39548 8.0659 6.28425C10.0833 4.58353 12.9623 3.36888 15.8906 2.96149V3.51562C15.8906 3.90396 16.2054 4.21875 16.5938 4.21875H19.4062C19.7946 4.21875 20.1094 3.90396 20.1094 3.51562V2.96149C23.0377 3.36888 25.9167 4.58353 27.9341 6.28418C28.066 6.39541 28.2269 6.44977 28.3869 6.4497C28.587 6.4497 28.7858 6.36476 28.9248 6.19973C29.1752 5.90295 29.1374 5.45934 28.8404 5.20903C27.7084 4.25468 26.3331 3.44004 24.8334 2.8125H31.9022C32.1924 3.63087 32.974 4.21875 33.8906 4.21875C35.0537 4.21875 36 3.27248 36 2.10938C36 0.946266 35.0537 0 33.8906 0ZM2.10938 2.8125C1.72167 2.8125 1.40625 2.49708 1.40625 2.10938C1.40625 1.72167 1.72167 1.40625 2.10938 1.40625C2.49708 1.40625 2.8125 1.72167 2.8125 2.10938C2.8125 2.49708 2.49708 2.8125 2.10938 2.8125ZM18.7031 2.10938V2.17266V2.8125H17.2969V2.17266V2.10938V1.40625H18.7031V2.10938ZM33.8906 2.8125C33.5029 2.8125 33.1875 2.49708 33.1875 2.10938C33.1875 1.72167 33.5029 1.40625 33.8906 1.40625C34.2783 1.40625 34.5938 1.72167 34.5938 2.10938C34.5938 2.49708 34.2783 2.8125 33.8906 2.8125Z" fill="white"/>
  </g>
</svg>