<?xml version="1.0" encoding="utf-8"?>
<svg viewBox="0 0 500 500" xmlns="http://www.w3.org/2000/svg">
  <defs>
    <filter id="filter0_d" x="0" y="0" width="82" height="82" filterUnits="userSpaceOnUse" color-interpolation-filters="sRGB">
      <feFlood flood-opacity="0" result="BackgroundImageFix"/>
      <feColorMatrix in="SourceAlpha" type="matrix" values="0 0 0 0 0 0 0 0 0 0 0 0 0 0 0 0 0 0 127 0" result="hardAlpha"/>
      <feOffset dy="4"/>
      <feGaussianBlur stdDeviation="4.5"/>
      <feColorMatrix type="matrix" values="0 0 0 0 0.916667 0 0 0 0 0.775156 0 0 0 0 0.7425 0 0 0 1 0"/>
      <feBlend mode="normal" in2="BackgroundImageFix" result="effect1_dropShadow"/>
      <feBlend mode="normal" in="SourceGraphic" in2="effect1_dropShadow" result="shape"/>
    </filter>
  </defs>
  <g filter="url(#filter0_d)" transform="matrix(7.310617, 0, 0, 7.310617, -49.735294, -20.492828)" style="">
    <path d="M39 69C22.4315 69 9 55.5685 9 39L9 35C9 18.4315 22.4315 5 39 5L73 5L73 39C73 55.5685 59.5685 69 43 69L39 69Z" fill="#FFB404"/>
  </g>
  <path d="M 220.58 238.997 C 251.607 238.997 276.763 213.841 276.763 182.816 C 276.763 151.789 251.607 126.633 220.58 126.633 C 189.547 126.633 164.399 151.789 164.399 182.816 C 164.428 213.834 189.562 238.968 220.58 238.997 Z M 220.58 137.263 C 245.736 137.263 266.133 157.66 266.133 182.816 C 266.133 207.971 245.736 228.368 220.58 228.368 C 195.424 228.368 175.028 207.971 175.028 182.816 C 175.057 157.667 195.432 137.292 220.58 137.263 Z" fill="white" style=""/>
  <path d="M 366.588 270.411 L 320.773 246.015 C 319.194 245.153 317.278 245.175 315.721 246.067 L 273.787 269.03 C 258.42 257.595 240.034 251.645 220.471 251.645 C 196.126 251.703 173.536 261.163 156.795 278.38 C 139.842 295.765 130.536 319.524 130.594 345.302 C 130.601 348.233 132.978 350.609 135.909 350.616 L 283.773 350.353 C 290.726 358.98 299.667 365.8 309.821 370.23 L 315.984 372.943 C 316.657 373.242 317.381 373.382 318.112 373.367 C 318.842 373.352 319.566 373.206 320.239 372.943 L 327.199 369.909 C 352.785 359.176 369.424 334.138 369.403 306.394 L 369.403 275.142 C 369.41 273.167 368.328 271.347 366.588 270.411 Z M 141.384 339.936 C 142.496 319.041 150.632 299.961 164.45 285.771 C 179.173 270.623 199.102 262.275 220.522 262.275 L 220.683 262.275 C 238.279 262.275 254.757 267.809 268.414 278.278 L 268.414 307.03 C 268.421 318.449 271.272 329.679 276.705 339.716 L 141.384 339.936 Z M 358.773 306.394 C 358.788 329.884 344.678 351.077 323.003 360.134 L 322.951 360.134 L 318.112 362.203 L 314.076 360.448 C 292.817 351.164 279.073 330.176 279.044 306.978 L 279.044 278.227 L 318.323 256.697 L 358.773 278.278 L 358.773 306.394 Z" fill="white" style=""/>
  <path d="M 303.761 303.572 C 301.852 301.343 298.497 301.087 296.268 302.995 C 294.038 304.902 293.774 308.258 295.682 310.488 L 307.745 324.568 C 308.761 325.745 310.238 326.425 311.788 326.432 C 313.002 326.44 314.185 326.031 315.136 325.263 L 343.201 302.461 C 345.475 300.597 345.804 297.242 343.94 294.968 C 342.083 292.687 338.728 292.358 336.447 294.222 L 312.423 313.785 L 303.761 303.572 Z" fill="white" style=""/>
</svg>